<?xml version="1.0" encoding="utf-8"?>
<!-- Generator: Adobe Illustrator 26.0.3, SVG Export Plug-In . SVG Version: 6.00 Build 0)  -->
<svg version="1.1" id="Layer_1" xmlns="http://www.w3.org/2000/svg" xmlns:xlink="http://www.w3.org/1999/xlink" x="0px" y="0px"
	 viewBox="0 0 33.3 33.3" style="enable-background:new 0 0 33.3 33.3;" xml:space="preserve">
<style type="text/css">
	.st0{fill:#FF8474;}
</style>
<path class="st0" d="M0,11.6c0,3.3,2.1,8.3,2.1,8.3h8.3c0-2.5,1-4,2.1-5.4s2.1-2.9,2.1-5.4c0-2.9-1-9.1-6.2-9.1S0,6.6,0,11.6z
	 M6.2,26.4c2.3,0,4.1-1.5,4.1-3.3v-1.7H2.1v1.7C2.1,24.9,3.9,26.4,6.2,26.4z M33,18.2c0-5-3.1-11.6-8.3-11.6s-6.2,6.2-6.2,9.1
	c0,2.5,1,4,2.1,5.4c1.1,1.4,2.1,2.9,2.1,5.4H31C31,26.4,33,21.5,33,18.2z M26.8,33c2.3,0,4.1-1.5,4.1-3.3v-1.7h-8.3v1.7
	C22.7,31.6,24.5,33,26.8,33z"/>
</svg>
